<?xml version="1.0" encoding="UTF-8" standalone="no"?>
<!-- Created with Inkscape (http://www.inkscape.org/) -->

<svg
   width="4.2333298mm"
   height="4.2333298mm"
   viewBox="0 0 4.2333298 4.2333298"
   version="1.1"
   id="svg1"
   inkscape:export-filename="icon.png"
   inkscape:export-xdpi="96"
   inkscape:export-ydpi="96"
   inkscape:version="1.4.2 (ebf0e940d0, 2025-05-08)"
   sodipodi:docname="drawing-1.svg"
   xmlns:inkscape="http://www.inkscape.org/namespaces/inkscape"
   xmlns:sodipodi="http://sodipodi.sourceforge.net/DTD/sodipodi-0.dtd"
   xmlns="http://www.w3.org/2000/svg"
   xmlns:svg="http://www.w3.org/2000/svg">
  <sodipodi:namedview
     id="namedview1"
     pagecolor="#ffffff"
     bordercolor="#000000"
     borderopacity="0.25"
     inkscape:showpageshadow="2"
     inkscape:pageopacity="0.0"
     inkscape:pagecheckerboard="0"
     inkscape:deskcolor="#d1d1d1"
     inkscape:document-units="mm"
     inkscape:zoom="21.327227"
     inkscape:cx="10.034122"
     inkscape:cy="4.8295074"
     inkscape:window-width="1600"
     inkscape:window-height="831"
     inkscape:window-x="0"
     inkscape:window-y="0"
     inkscape:window-maximized="1"
     inkscape:current-layer="layer1" />
  <defs
     id="defs1" />
  <g
     inkscape:label="Layer 1"
     inkscape:groupmode="layer"
     id="layer1"
     transform="translate(-165.89375,-153.72292)">
    <path
       d="m 167.21667,153.72292 v 0.52916 c -0.43512,0 -0.79375,0.35864 -0.79375,0.79375 v 0.26459 h -0.52917 v 0.26458 h 0.52917 v 0.26458 h -0.52917 v 0.26459 h 0.52917 v 0.26458 h -0.52917 v 0.26458 h 0.52917 c 0,0.43512 0.35863,0.79375 0.79375,0.79375 h 0.26458 v 0.52917 h 0.26458 v -0.52917 h 0.26459 v 0.52917 h 0.26458 v -0.52917 h 0.26458 v 0.52917 h 0.26459 v -0.52917 c 0.43511,0 0.79375,-0.35863 0.79375,-0.79375 v -0.26458 h 0.52916 v -0.26458 h -0.52916 v -0.26459 h 0.52916 V 155.575 h -0.52916 v -0.26458 h 0.52916 v -0.26459 h -0.52916 c 0,-0.43511 -0.35864,-0.79375 -0.79375,-0.79375 h -0.26459 v -0.52916 H 168.275 v 0.52916 h -0.26458 v -0.52916 h -0.26459 v 0.52916 h -0.26458 v -0.52916 z m 0,1.05833 h 1.5875 c 0.15089,0 0.26458,0.11369 0.26458,0.26458 v 1.5875 c 0,0.1509 -0.11369,0.26459 -0.26458,0.26459 h -1.5875 c -0.1509,0 -0.26459,-0.11369 -0.26459,-0.26459 v -1.5875 c 0,-0.15089 0.11369,-0.26458 0.26459,-0.26458 z m 0,0.26458 v 1.5875 h 1.5875 v -1.5875 z m 0,0"
       fill="#222222"
       id="path1"
       style="stroke-width:0.264583;fill:#26a269" />
    <g
       fill="#222222"
       id="g3"
       transform="matrix(0.08469786,0,0,0.08469786,167.33282,155.162)"
       style="fill:#ffffff">
      <path
         d="m 0,15 v -2 h 8 v 2 z M 0,11 V 9 h 8 v 2 z M 0,7 V 5 h 8 v 2 z m 0,0"
         id="path1-5"
         style="fill:#ffffff" />
      <path
         d="m 11,2 c -0.550781,0 -1,0.449219 -1,1 v 4 c 0,0.550781 0.449219,1 1,1 0.550781,0 1,-0.449219 1,-1 V 5.535156 c 1.503906,0.867188 2.285156,2.609375 1.90625,4.328125 C 13.496094,11.703125 11.882812,13 10,13 c -0.550781,0 -1,0.449219 -1,1 0,0.550781 0.449219,1 1,1 2.808594,0 5.25,-1.960938 5.859375,-4.699219 C 16.398438,7.851562 15.355469,5.351562 13.316406,4 H 15 C 15.550781,4 16,3.550781 16,3 16,2.449219 15.550781,2 15,2 Z m 0,0"
         id="path2"
         style="fill:#ffffff" />
      <path
         d="M 0,3 V 1 h 8 v 2 z m 0,0"
         fill-opacity="0.34902"
         id="path3"
         style="fill:#ffffff" />
    </g>
  </g>
</svg>
